{
  "accessors": [
    {
      "bufferView": 2,
      "componentType": 5126,
      "count": 1042,
      "max": [
        5.0,
        3.0,
        7.199999809265137
      ],
      "min": [
        -5.0,
        -3.0,
        0.0
      ],
      "type": "VEC3"
    },
    {
      "bufferView": 2,
      "byteOffset": 12504,
      "componentType": 5126,
      "count": 1042,
      "max": [
        1.0,
        1.0,
        1.0
      ],
      "min": [
        -1.0,
        -1.0,
        -1.0
      ],
      "type": "VEC3"
    },
    {
      "bufferView": 1,
      "componentType": 5126,
      "count": 1042,
      "max": [
        0.9999099969863892,
        1.5592340230941772
      ],
      "min": [
        -0.1380929946899414,
        9.000000318337698e-06
      ],
      "type": "VEC2"
    },
    {
      "bufferView": 0,
      "componentType": 5125,
      "count": 2766,
      "type": "SCALAR"
    },
    {
      "bufferView": 2,
      "byteOffset": 25008,
      "componentType": 5126,
      "count": 944,
      "max": [
        4.996866226196289,
        2.948659896850586,
        7.199999809265137
      ],
      "min": [
        -4.09416389465332,
        -2.8190019130706787,
        0.17580799758434296
      ],
      "type": "VEC3"
    },
    {
      "bufferView": 2,
      "byteOffset": 36336,
      "componentType": 5126,
      "count": 944,
      "max": [
        1.0,
        1.0,
        1.0
      ],
      "min": [
        -1.0,
        -1.0,
        -1.0
      ],
      "type": "VEC3"
    },
    {
      "bufferView": 1,
      "byteOffset": 8336,
      "componentType": 5126,
      "count": 944,
      "max": [
        1.0078730583190918,
        0.9999560117721558
      ],
      "min": [
        -0.16425199806690216,
        -0.009738000109791756
      ],
      "type": "VEC2"
    },
    {
      "bufferView": 0,
      "byteOffset": 11064,
      "componentType": 5125,
      "count": 1458,
      "type": "SCALAR"
    },
    {
      "bufferView": 2,
      "byteOffset": 47664,
      "componentType": 5126,
      "count": 34,
      "max": [
        4.051774024963379,
        2.0,
        4.067132949829102
      ],
      "min": [
        -4.0,
        -2.0386009216308594,
        0.20000000298023224
      ],
      "type": "VEC3"
    },
    {
      "bufferView": 2,
      "byteOffset": 48072,
      "componentType": 5126,
      "count": 34,
      "max": [
        0.0,
        -0.0,
        1.0
      ],
      "min": [
        0.0,
        -0.0,
        -1.0
      ],
      "type": "VEC3"
    },
    {
      "bufferView": 1,
      "byteOffset": 15888,
      "componentType": 5126,
      "count": 34,
      "max": [
        2.0043089389801025,
        3.4999070167541504
      ],
      "min": [
        9.300000237999484e-05,
        -0.3122110068798065
      ],
      "type": "VEC2"
    },
    {
      "bufferView": 0,
      "byteOffset": 16896,
      "componentType": 5125,
      "count": 84,
      "type": "SCALAR"
    },
    {
      "bufferView": 2,
      "byteOffset": 48480,
      "componentType": 5126,
      "count": 588,
      "max": [
        5.0,
        3.0,
        7.96541690826416
      ],
      "min": [
        -5.0,
        -3.0,
        0.0
      ],
      "type": "VEC3"
    },
    {
      "bufferView": 2,
      "byteOffset": 55536,
      "componentType": 5126,
      "count": 588,
      "max": [
        1.0,
        1.0,
        0.9886675477027893
      ],
      "min": [
        -1.0,
        -1.0,
        -0.9886675477027893
      ],
      "type": "VEC3"
    },
    {
      "bufferView": 1,
      "byteOffset": 16160,
      "componentType": 5126,
      "count": 588,
      "max": [
        0.6999660134315491,
        1.0
      ],
      "min": [
        3.400000059627928e-05,
        0.0
      ],
      "type": "VEC2"
    },
    {
      "bufferView": 0,
      "byteOffset": 17232,
      "componentType": 5125,
      "count": 1020,
      "type": "SCALAR"
    }
  ],
  "asset": {
    "extras": {
      "author": "ribot02 (https://sketchfab.com/ribot02)",
      "license": "CC-BY-4.0 (http://creativecommons.org/licenses/by/4.0/)",
      "source": "https://sketchfab.com/3d-models/ruined-house-low-poly-9fdc8d1f23a249768c377db0dfcaf42c",
      "title": "ruined house low poly"
    },
    "generator": "Sketchfab-12.66.0",
    "version": "2.0"
  },
  "bufferViews": [
    {
      "buffer": 0,
      "byteLength": 21312,
      "name": "floatBufferViews",
      "target": 34963
    },
    {
      "buffer": 0,
      "byteLength": 20864,
      "byteOffset": 21312,
      "byteStride": 8,
      "name": "floatBufferViews",
      "target": 34962
    },
    {
      "buffer": 0,
      "byteLength": 62592,
      "byteOffset": 42176,
      "byteStride": 12,
      "name": "floatBufferViews",
      "target": 34962
    }
  ],
  "buffers": [
    {
      "byteLength": 104768,
      "uri": "scene.bin"
    }
  ],
  "images": [
    {
      "uri": "textures/Betonmaterial_baseColor.jpeg"
    },
    {
      "uri": "textures/BricksWall_baseColor.jpeg"
    },
    {
      "uri": "textures/HouseFloorInside_baseColor.jpeg"
    },
    {
      "uri": "textures/MetalDark_baseColor.jpeg"
    }
  ],
  "materials": [
    {
      "doubleSided": true,
      "name": "Betonmaterial",
      "pbrMetallicRoughness": {
        "baseColorTexture": {
          "index": 0
        },
        "metallicFactor": 0.0,
        "roughnessFactor": 0.9850824961223107
      }
    },
    {
      "doubleSided": true,
      "name": "BricksWall",
      "pbrMetallicRoughness": {
        "baseColorTexture": {
          "index": 1
        },
        "metallicFactor": 0.0,
        "roughnessFactor": 0.9405396442498639
      }
    },
    {
      "doubleSided": true,
      "name": "HouseFloorInside",
      "pbrMetallicRoughness": {
        "baseColorTexture": {
          "index": 2
        },
        "metallicFactor": 0.0,
        "roughnessFactor": 0.8063508326896291
      }
    },
    {
      "doubleSided": true,
      "name": "MetalDark",
      "pbrMetallicRoughness": {
        "baseColorTexture": {
          "index": 3
        },
        "metallicFactor": 0.5793264992186977,
        "roughnessFactor": 0.6158075381986879
      }
    }
  ],
  "meshes": [
    {
      "name": "Object_0",
      "primitives": [
        {
          "attributes": {
            "NORMAL": 1,
            "POSITION": 0,
            "TEXCOORD_0": 2
          },
          "indices": 3,
          "material": 0,
          "mode": 4
        }
      ]
    },
    {
      "name": "Object_1",
      "primitives": [
        {
          "attributes": {
            "NORMAL": 5,
            "POSITION": 4,
            "TEXCOORD_0": 6
          },
          "indices": 7,
          "material": 1,
          "mode": 4
        }
      ]
    },
    {
      "name": "Object_2",
      "primitives": [
        {
          "attributes": {
            "NORMAL": 9,
            "POSITION": 8,
            "TEXCOORD_0": 10
          },
          "indices": 11,
          "material": 2,
          "mode": 4
        }
      ]
    },
    {
      "name": "Object_3",
      "primitives": [
        {
          "attributes": {
            "NORMAL": 13,
            "POSITION": 12,
            "TEXCOORD_0": 14
          },
          "indices": 15,
          "material": 3,
          "mode": 4
        }
      ]
    }
  ],
  "nodes": [
    {
      "children": [
        1
      ],
      "matrix": [
        1.0,
        0.0,
        0.0,
        0.0,
        0.0,
        2.220446049250313e-16,
        -1.0,
        0.0,
        0.0,
        1.0,
        2.220446049250313e-16,
        0.0,
        0.0,
        0.0,
        0.0,
        1.0
      ],
      "name": "Sketchfab_model"
    },
    {
      "children": [
        2,
        3,
        4,
        5
      ],
      "name": "ruineHouse01.obj.cleaner.materialmerger.gles"
    },
    {
      "mesh": 0,
      "name": "Object_2"
    },
    {
      "mesh": 1,
      "name": "Object_3"
    },
    {
      "mesh": 2,
      "name": "Object_4"
    },
    {
      "mesh": 3,
      "name": "Object_5"
    }
  ],
  "samplers": [
    {
      "magFilter": 9729,
      "minFilter": 9987,
      "wrapS": 10497,
      "wrapT": 10497
    }
  ],
  "scene": 0,
  "scenes": [
    {
      "name": "Sketchfab_Scene",
      "nodes": [
        0
      ]
    }
  ],
  "textures": [
    {
      "sampler": 0,
      "source": 0
    },
    {
      "sampler": 0,
      "source": 1
    },
    {
      "sampler": 0,
      "source": 2
    },
    {
      "sampler": 0,
      "source": 3
    }
  ]
}
