{
	"asset":{
		"generator":"Khronos glTF Blender I/O v4.4.56",
		"version":"2.0"
	},
	"scene":0,
	"scenes":[
		{
			"name":"Scene",
			"nodes":[
				0,
				1
			]
		}
	],
	"nodes":[
		{
			"mesh":0,
			"name":"Torus.001",
			"rotation":[
				0.7071068286895752,
				0,
				0,
				0.7071068286895752
			],
			"translation":[
				0,
				1.6399999856948853,
				0
			]
		},
		{
			"mesh":1,
			"name":"B\u00e9zierCurve",
			"rotation":[
				-0.7071068286895752,
				0,
				0,
				0.7071068286895752
			],
			"scale":[
				1.5,
				1.7999999523162842,
				1.380000114440918
			],
			"translation":[
				0,
				4.549999713897705,
				0
			]
		}
	],
	"materials":[
		{
			"doubleSided":true,
			"name":"Material.001",
			"pbrMetallicRoughness":{
				"baseColorFactor":[
					0.39988943934440613,
					0.006658024154603481,
					0.00768338143825531,
					1
				],
				"metallicFactor":0,
				"roughnessFactor":0.5
			}
		}
	],
	"meshes":[
		{
			"name":"Torus.001",
			"primitives":[
				{
					"attributes":{
						"POSITION":0,
						"NORMAL":1,
						"TEXCOORD_0":2
					},
					"indices":3,
					"material":0
				}
			]
		},
		{
			"name":"B\u00e9zierCurve.004",
			"primitives":[
				{
					"attributes":{
						"POSITION":4,
						"NORMAL":5,
						"TEXCOORD_0":6,
						"COLOR_0":7,
						"COLOR_1":8
					},
					"indices":9,
					"material":0
				}
			]
		}
	],
	"accessors":[
		{
			"bufferView":0,
			"componentType":5126,
			"count":637,
			"max":[
				1.6399999856948853,
				0.5,
				1.6399999856948853
			],
			"min":[
				-1.6399999856948853,
				-0.5,
				-1.6399999856948853
			],
			"type":"VEC3"
		},
		{
			"bufferView":1,
			"componentType":5126,
			"count":637,
			"type":"VEC3"
		},
		{
			"bufferView":2,
			"componentType":5126,
			"count":637,
			"type":"VEC2"
		},
		{
			"bufferView":3,
			"componentType":5123,
			"count":3456,
			"type":"SCALAR"
		},
		{
			"bufferView":4,
			"componentType":5126,
			"count":167,
			"max":[
				1.10052490234375,
				0.27000001072883606,
				-0.16151361167430878
			],
			"min":[
				-1.0919671058654785,
				-0.27000004053115845,
				-1.017591953277588
			],
			"type":"VEC3"
		},
		{
			"bufferView":5,
			"componentType":5126,
			"count":167,
			"type":"VEC3"
		},
		{
			"bufferView":6,
			"componentType":5126,
			"count":167,
			"type":"VEC2"
		},
		{
			"bufferView":7,
			"componentType":5121,
			"count":167,
			"normalized":true,
			"type":"VEC4"
		},
		{
			"bufferView":8,
			"componentType":5123,
			"count":167,
			"normalized":true,
			"type":"VEC4"
		},
		{
			"bufferView":9,
			"componentType":5123,
			"count":804,
			"type":"SCALAR"
		}
	],
	"bufferViews":[
		{
			"buffer":0,
			"byteLength":7644,
			"byteOffset":0,
			"target":34962
		},
		{
			"buffer":0,
			"byteLength":7644,
			"byteOffset":7644,
			"target":34962
		},
		{
			"buffer":0,
			"byteLength":5096,
			"byteOffset":15288,
			"target":34962
		},
		{
			"buffer":0,
			"byteLength":6912,
			"byteOffset":20384,
			"target":34963
		},
		{
			"buffer":0,
			"byteLength":2004,
			"byteOffset":27296,
			"target":34962
		},
		{
			"buffer":0,
			"byteLength":2004,
			"byteOffset":29300,
			"target":34962
		},
		{
			"buffer":0,
			"byteLength":1336,
			"byteOffset":31304,
			"target":34962
		},
		{
			"buffer":0,
			"byteLength":668,
			"byteOffset":32640,
			"target":34962
		},
		{
			"buffer":0,
			"byteLength":1336,
			"byteOffset":33308,
			"target":34962
		},
		{
			"buffer":0,
			"byteLength":1608,
			"byteOffset":34644,
			"target":34963
		}
	],
	"buffers":[
		{
			"byteLength":36252,
			"uri":"DonutSaucisse.bin"
		}
	]
}
