{
  "accessors": [
    {
      "bufferView": 2,
      "componentType": 5126,
      "count": 54780,
      "max": [
        0.10172700136899948,
        0.15729999542236328,
        0.12490599602460861
      ],
      "min": [
        -0.10172700136899948,
        -0.15729999542236328,
        -0.1249060183763504
      ],
      "type": "VEC3"
    },
    {
      "bufferView": 2,
      "byteOffset": 657360,
      "componentType": 5126,
      "count": 54780,
      "max": [
        0.9999997019767761,
        0.9999995827674866,
        0.9999876618385315
      ],
      "min": [
        -0.9999843239784241,
        -0.9999738931655884,
        -0.9999925494194031
      ],
      "type": "VEC3"
    },
    {
      "bufferView": 1,
      "componentType": 5126,
      "count": 54780,
      "max": [
        0.9999120235443115,
        0.9999459981918335
      ],
      "min": [
        5.199999941396527e-05,
        0.0019180000526830554
      ],
      "type": "VEC2"
    },
    {
      "bufferView": 0,
      "componentType": 5125,
      "count": 300000,
      "type": "SCALAR"
    }
  ],
  "asset": {
    "extras": {
      "author": "Andrew Sink (https://sketchfab.com/andrewsink)",
      "license": "CC-BY-4.0 (http://creativecommons.org/licenses/by/4.0/)",
      "source": "https://sketchfab.com/3d-models/yoga-frog-statue-polycam-3d-scan-e2d4fe1eaed648cd9342a385953287f6",
      "title": "Yoga Frog Statue / Polycam 3D Scan"
    },
    "generator": "Sketchfab-13.80.0",
    "version": "2.0"
  },
  "bufferViews": [
    {
      "buffer": 0,
      "byteLength": 1200000,
      "name": "floatBufferViews",
      "target": 34963
    },
    {
      "buffer": 0,
      "byteLength": 438240,
      "byteOffset": 1200000,
      "byteStride": 8,
      "name": "floatBufferViews",
      "target": 34962
    },
    {
      "buffer": 0,
      "byteLength": 1314720,
      "byteOffset": 1638240,
      "byteStride": 12,
      "name": "floatBufferViews",
      "target": 34962
    }
  ],
  "buffers": [
    {
      "byteLength": 2952960,
      "uri": "scene.bin"
    }
  ],
  "images": [
    {
      "uri": "textures/textured_0_baseColor.jpeg"
    }
  ],
  "materials": [
    {
      "doubleSided": true,
      "name": "textured_0",
      "pbrMetallicRoughness": {
        "baseColorTexture": {
          "index": 0
        },
        "metallicFactor": 0.0
      }
    }
  ],
  "meshes": [
    {
      "name": "Object_0",
      "primitives": [
        {
          "attributes": {
            "NORMAL": 1,
            "POSITION": 0,
            "TEXCOORD_0": 2
          },
          "indices": 3,
          "material": 0,
          "mode": 4
        }
      ]
    }
  ],
  "nodes": [
    {
      "children": [
        1
      ],
      "matrix": [
        -0.9967074990272522,
        -2.8130113070825574e-18,
        -0.081081323325634,
        0.0,
        0.00040207395795732737,
        -0.9999877214431763,
        -0.00494256988167785,
        0.0,
        -0.08108032494783401,
        -0.004958896897733433,
        0.9966952204704285,
        0.0,
        0.0,
        0.0,
        0.0,
        1.0
      ],
      "name": "Sketchfab_model"
    },
    {
      "children": [
        2
      ],
      "name": "Frog_Statue.obj.cleaner.materialmerger.gles"
    },
    {
      "mesh": 0,
      "name": "Object_2"
    }
  ],
  "samplers": [
    {
      "magFilter": 9729,
      "minFilter": 9987,
      "wrapS": 10497,
      "wrapT": 10497
    }
  ],
  "scene": 0,
  "scenes": [
    {
      "name": "Sketchfab_Scene",
      "nodes": [
        0
      ]
    }
  ],
  "textures": [
    {
      "sampler": 0,
      "source": 0
    }
  ]
}
